# xmcd CD database file
#
# Track frame offsets:
#	150
#	14012
#	28020
#	44052
#	55055
#	66615
#	81477
#	93875
#	105982
#	119047
#	136065
#	149277
#	160497
#	172957
#	188040
#	201397
#	217730
#	228570
#	242447
#	261802
#
# Disc length: 3662 seconds
#
# Revision: 1
# Processed by: cddbd v1.4PL0 Copyright (c) Steve Scherf et al.
# Submitted via: CDex 1.50beta9
#
DISCID=230e4c14
DTITLE=Lynn Anderson - The Best Of Lynn Anderson
DYEAR=1998
DGENRE=Country
TTITLE0=Talking In Your Sleep
TTITLE1=Cry
TTITLE2=You Needed Me
TTITLE3=The Ways To Love A Man
TTITLE4=Listen To A Country Song
TTITLE5=We've Only Just Begun
TTITLE6=Stand By Your Man
TTITLE7=How Can I Unlove You
TTITLE8=Rose Garden
TTITLE9=Blue Bayou
TTITLE10=Danny's Song
TTITLE11=Someday Soon
TTITLE12=I've Never Loved Anyone More
TTITLE13=Could I Have This Dance?
TTITLE14=Keep Me In Mind
TTITLE15=When I Dream
TTITLE16=If I Kiss You
TTITLE17=Two Doors Down
TTITLE18=Love Has No Pride
TTITLE19=A Mansion On The Hill
EXTD=YEAR: 1998
EXTT0=
EXTT1=
EXTT2=
EXTT3=
EXTT4=
EXTT5=
EXTT6=
EXTT7=
EXTT8=
EXTT9=
EXTT10=
EXTT11=
EXTT12=
EXTT13=
EXTT14=
EXTT15=
EXTT16=
EXTT17=
EXTT18=
EXTT19=
PLAYORDER=
